<?xml version="1.0" encoding="UTF-8" standalone="no"?>
<!-- Created with Inkscape (http://www.inkscape.org/) -->

<svg
   width="210mm"
   height="297mm"
   viewBox="0 0 210 297"
   version="1.1"
   id="svg5"
   sodipodi:docname="logo-game.svg"
   inkscape:version="1.2.2 (732a01da63, 2022-12-09)"
   xml:space="preserve"
   xmlns:inkscape="http://www.inkscape.org/namespaces/inkscape"
   xmlns:sodipodi="http://sodipodi.sourceforge.net/DTD/sodipodi-0.dtd"
   xmlns:xlink="http://www.w3.org/1999/xlink"
   xmlns="http://www.w3.org/2000/svg"
   xmlns:svg="http://www.w3.org/2000/svg"><sodipodi:namedview
     id="namedview7"
     pagecolor="#ffffff"
     bordercolor="#000000"
     borderopacity="0.25"
     inkscape:showpageshadow="2"
     inkscape:pageopacity="0.0"
     inkscape:pagecheckerboard="0"
     inkscape:deskcolor="#d1d1d1"
     inkscape:document-units="mm"
     showgrid="false"
     inkscape:zoom="3.659624"
     inkscape:cx="258.22325"
     inkscape:cy="225.9795"
     inkscape:window-width="3840"
     inkscape:window-height="2066"
     inkscape:window-x="8029"
     inkscape:window-y="49"
     inkscape:window-maximized="1"
     inkscape:current-layer="layer1" /><defs
     id="defs2"><linearGradient
       inkscape:collect="always"
       id="linearGradient4293"><stop
         style="stop-color:#000000;stop-opacity:1;"
         offset="0.01"
         id="stop4289" /><stop
         style="stop-color:#000000;stop-opacity:0;"
         offset="1"
         id="stop4291" /></linearGradient><linearGradient
       inkscape:collect="always"
       xlink:href="#linearGradient4293"
       id="linearGradient4295"
       x1="65.331924"
       y1="103.97012"
       x2="79.778893"
       y2="103.97012"
       gradientUnits="userSpaceOnUse"
       gradientTransform="matrix(2.7622296,0,0,2.7622296,-170.36729,-266.05894)" /></defs><g
     inkscape:groupmode="layer"
     id="layer2"
     inkscape:label="Layer 2"><circle
       style="fill:#000000;fill-opacity:0;stroke:#000000;stroke-width:1.12897;stroke-dasharray:none;stroke-dashoffset:0;stroke-opacity:1"
       id="path4349"
       cx="13.522162"
       cy="34.511707"
       r="11.605094" /></g><g
     inkscape:label="Layer 1"
     inkscape:groupmode="layer"
     id="layer1"><text
       xml:space="preserve"
       style="font-style:normal;font-variant:normal;font-weight:normal;font-stretch:normal;font-size:8.46667px;font-family:'Fira Code';-inkscape-font-specification:'Fira Code';fill:#000000;stroke-width:0.264583"
       x="14.033385"
       y="20.580873"
       id="text-title"><tspan
         id="tspan165"
         style="font-style:normal;font-variant:normal;font-weight:normal;font-stretch:normal;font-size:8.46667px;font-family:'Fira Code';-inkscape-font-specification:'Fira Code';stroke-width:0.264583"
         x="14.033385"
         y="20.580873"
         sodipodi:role="line">Solar</tspan><tspan
         style="font-style:normal;font-variant:normal;font-weight:normal;font-stretch:normal;font-size:8.46667px;font-family:'Fira Code';-inkscape-font-specification:'Fira Code';stroke-width:0.264583"
         x="14.033385"
         y="31.164209"
         sodipodi:role="line"
         id="tspan219">    Genesis</tspan></text><text
       xml:space="preserve"
       style="font-style:normal;font-variant:normal;font-weight:normal;font-stretch:normal;font-size:3.175px;font-family:'Fira Code';-inkscape-font-specification:'Fira Code';fill:#000000;stroke-width:0.264583"
       x="23.936024"
       y="46.552891"
       id="text167-6"><tspan
         style="font-style:normal;font-variant:normal;font-weight:normal;font-stretch:normal;font-family:'Fira Code';-inkscape-font-specification:'Fira Code';stroke-width:0.264583"
         x="23.936024"
         y="46.552891"
         sodipodi:role="line"
         id="tspan219-6">A journey into space, time and the frontiers of the human mind.</tspan></text><path
       d="m 102.22283,15.488926 -6.23989,3.7455 c -1.35633,0.81457 -2.90754,1.2433 -4.48992,1.2433 h -1.94875 c -1.03283,0 -1.8708,-0.83796 -1.8708,-1.8708 v -1.8708 c -0.68985,0 -1.2472,-0.55734 -1.2472,-1.2472 V 8.0057357 c 0,-0.68986 0.55735,-1.2472 1.2472,-1.2472 v -1.8708 c 0,-1.03283 0.83797,-1.8708 1.8708,-1.8708 h 1.94875 c 1.58238,0 3.13359,0.42873 4.48992,1.2433 l 6.23989,3.7455 h 1.97603 c 2.35798,0 5.00828,1.22381 6.64133,2.9932803 0.38975,0.42482 0.38975,1.07571 0,1.50053 -1.63305,1.76557 -4.28335,2.98938 -6.64133,2.98938 z m -1.21212,0 h -7.21037 c -0.21436,0 -0.43652,0.12083 -0.6275,0.33129 -0.37806,0.41314 -0.88083,0.71714 -1.44987,0.84576 v 3.18425 c 1.38751,-0.039 2.74384,-0.43652 3.93648,-1.15366 z m -12.71364,1.2472 v 1.8708 c 0,0.68986 0.55735,1.2472 1.2472,1.2472 h 1.559 v -3.118 z m 12.71364,-8.7303903 -5.34737,-3.21154 c -1.19263,-0.71714 -2.54896,-1.11078 -3.93647,-1.15366 v 3.18426 c 0.56904,0.12862 1.07181,0.42872 1.44987,0.84576 0.19098,0.21046 0.41313,0.33128 0.6275,0.33128 h 7.21036 z m -11.46644,-4.3652 c -0.68985,0 -1.2472,0.55735 -1.2472,1.2472 v 1.8708 h 2.8062 v -3.118 z m -2.4944,4.3652 v 3.4298003 h 6.5478 c 0.17149,0 0.3118,0.14031 0.3118,0.3118 0,0.17149 -0.14031,0.3118 -0.3118,0.3118 h -6.5478 v 3.42979 c 0,0.34298 0.28062,0.6236 0.6236,0.6236 h 3.4298 c 0.63919,0 1.21212,-0.27282 1.61356,-0.70934 0.25724,-0.28452 0.6353,-0.53786 1.08741,-0.53786 h 10.39462 c 2.1709,0 4.6614,-1.14196 6.18143,-2.7906 0.17149,-0.18708 0.17149,-0.4677 0,-0.65478 -1.52003,-1.6486403 -4.01053,-2.7906103 -6.18143,-2.7906103 H 93.80424 c -0.45211,0 -0.83017,-0.25334 -1.08741,-0.53786 -0.40144,-0.43652 -0.97437,-0.70934 -1.61356,-0.70934 h -3.4298 c -0.34298,0 -0.6236,0.28062 -0.6236,0.6236 z m 18.39619,2.1826003 c 0.17148,0 0.31179,0.14031 0.31179,0.3118 v 2.4944 c 0,0.17149 -0.14031,0.3118 -0.31179,0.3118 -0.17149,0 -0.3118,-0.14031 -0.3118,-0.3118 v -2.4944 c 0,-0.17149 0.14031,-0.3118 0.3118,-0.3118 z"
       id="path13280"
       style="stroke-width:0.0389749" /><path
       style="fill:#000000;fill-opacity:0;stroke:#000000;stroke-width:0.264999;stroke-dasharray:none;stroke-dashoffset:0;stroke-opacity:1"
       d="M 85.23902,9.3850647 H 73.736486"
       id="path13706" /><path
       style="fill:#000000;fill-opacity:0;stroke:#000000;stroke-width:0.264999;stroke-dasharray:none;stroke-dashoffset:0;stroke-opacity:1"
       d="M 85.23902,13.730467 H 73.736486"
       id="path13706-4" /><circle
       style="fill:#000000;fill-opacity:0;stroke:url(#linearGradient4295);stroke-width:1.28444;stroke-dasharray:30.8265, 1.28444;stroke-dashoffset:0;stroke-opacity:1"
       id="path273"
       cx="30.04747"
       cy="21.130419"
       r="19.310705" /></g></svg>
