<?xml version="1.0" encoding="UTF-8" standalone="no"?><!DOCTYPE svg PUBLIC "-//W3C//DTD SVG 1.1//EN" "http://www.w3.org/Graphics/SVG/1.1/DTD/svg11.dtd"><svg width="100%" height="100%" viewBox="0 0 2134 638" version="1.1" xmlns="http://www.w3.org/2000/svg" xmlns:xlink="http://www.w3.org/1999/xlink" xml:space="preserve" xmlns:serif="http://www.serif.com/" style="fill-rule:evenodd;clip-rule:evenodd;stroke-linejoin:round;stroke-miterlimit:2;"><g id="name"><g><path d="M725.951,192.624c0,9.029 -1.921,16.263 -5.762,21.703c-3.841,5.439 -9.127,9.393 -15.856,11.86c-6.73,2.468 -14.469,3.702 -23.217,3.702l-14.805,-0l0,42.984l-14.636,0l-0,-115.831l29.609,0c13.796,0 24.689,2.888 32.68,8.664c7.992,5.777 11.987,14.749 11.987,26.918Zm-15.646,0.168c0,-5.944 -1.178,-10.683 -3.533,-14.215c-2.355,-3.533 -5.594,-6.071 -9.715,-7.613c-4.122,-1.542 -8.791,-2.313 -14.006,-2.313l-16.74,-0l0,49.461l16.151,0c5.384,0 10.178,-0.729 14.384,-2.187c4.206,-1.458 7.501,-4.024 9.884,-7.697c2.383,-3.673 3.575,-8.818 3.575,-15.436Z" style="fill:#fff;fill-rule:nonzero;"/><path d="M764.225,147.285l-0,49.125c3.477,-4.599 7.753,-8.076 12.828,-10.431c5.075,-2.355 10.22,-3.533 15.436,-3.533c8.636,-0 14.945,2.299 18.926,6.898c3.982,4.598 5.973,10.991 5.973,19.179l-0,64.35l-14.132,0l-0,-64.014c-0,-5.327 -1.234,-9.211 -3.701,-11.65c-2.468,-2.44 -6.337,-3.659 -11.609,-3.659c-3.364,-0 -6.561,0.757 -9.589,2.271c-3.028,1.514 -5.748,3.393 -8.16,5.636c-2.411,2.243 -4.402,4.542 -5.972,6.897l-0,64.519l-14.132,0l0,-124.074l14.132,-1.514Z" style="fill:#fff;fill-rule:nonzero;"/><path d="M884.766,182.446c12.506,-0 21.955,4.178 28.348,12.534c6.393,8.355 9.59,19.543 9.59,33.563c-0,9.028 -1.458,17.02 -4.374,23.973c-2.917,6.954 -7.207,12.408 -12.871,16.361c-5.664,3.954 -12.617,5.931 -20.861,5.931c-12.505,-0 -21.983,-4.206 -28.432,-12.618c-6.449,-8.412 -9.673,-19.571 -9.673,-33.479c-0,-9.085 1.458,-17.118 4.374,-24.1c2.916,-6.982 7.22,-12.421 12.912,-16.319c5.692,-3.897 12.688,-5.846 20.987,-5.846Zm0,11.524c-7.626,0 -13.388,2.832 -17.286,8.496c-3.897,5.664 -5.846,14.412 -5.846,26.245c-0,11.72 1.921,20.399 5.762,26.035c3.841,5.636 9.575,8.453 17.202,8.453c7.627,0 13.361,-2.832 17.202,-8.495c3.842,-5.664 5.762,-14.385 5.762,-26.161c0,-11.777 -1.906,-20.483 -5.72,-26.119c-3.813,-5.636 -9.505,-8.454 -17.076,-8.454Z" style="fill:#fff;fill-rule:nonzero;"/><path d="M1022.3,268.415c-3.029,2.019 -6.702,3.589 -11.02,4.71c-4.318,1.122 -8.552,1.683 -12.702,1.683c-9.533,-0 -16.879,-2.496 -22.039,-7.487c-5.159,-4.991 -7.739,-11.412 -7.739,-19.263l0,-52.826l-20.356,-0l-0,-10.935l20.356,-0l0,-20.105l14.132,-1.682l0,21.787l30.619,-0l-1.682,10.935l-28.937,-0l0,52.658c0,4.935 1.304,8.692 3.912,11.272c2.608,2.579 6.94,3.869 12.996,3.869c3.309,0 6.365,-0.392 9.169,-1.177c2.804,-0.786 5.412,-1.795 7.823,-3.029l5.468,9.59Z" style="fill:#fff;fill-rule:nonzero;"/><path d="M1086.65,182.446c12.506,-0 21.955,4.178 28.348,12.534c6.393,8.355 9.589,19.543 9.589,33.563c0,9.028 -1.458,17.02 -4.374,23.973c-2.916,6.954 -7.206,12.408 -12.87,16.361c-5.664,3.954 -12.618,5.931 -20.861,5.931c-12.506,-0 -21.983,-4.206 -28.432,-12.618c-6.449,-8.412 -9.674,-19.571 -9.674,-33.479c0,-9.085 1.458,-17.118 4.374,-24.1c2.917,-6.982 7.221,-12.421 12.913,-16.319c5.692,-3.897 12.687,-5.846 20.987,-5.846Zm0,11.524c-7.627,0 -13.389,2.832 -17.286,8.496c-3.898,5.664 -5.846,14.412 -5.846,26.245c-0,11.72 1.92,20.399 5.762,26.035c3.841,5.636 9.575,8.453 17.202,8.453c7.627,0 13.361,-2.832 17.202,-8.495c3.841,-5.664 5.762,-14.385 5.762,-26.161c0,-11.777 -1.907,-20.483 -5.72,-26.119c-3.813,-5.636 -9.505,-8.454 -17.076,-8.454Z" style="fill:#fff;fill-rule:nonzero;"/><path d="M1153.86,272.873l-0,-88.576l12.029,-0l1.093,12.281c3.589,-4.543 8.075,-8.033 13.459,-10.473c5.384,-2.439 10.655,-3.659 15.814,-3.659c8.692,-0 15.015,2.299 18.969,6.898c3.953,4.598 5.93,10.991 5.93,19.179l0,64.35l-14.132,0l0,-53.92c0,-6.056 -0.336,-10.935 -1.009,-14.636c-0.673,-3.702 -2.089,-6.421 -4.248,-8.16c-2.159,-1.738 -5.454,-2.607 -9.884,-2.607c-3.477,-0 -6.743,0.757 -9.8,2.271c-3.056,1.514 -5.776,3.407 -8.159,5.678c-2.384,2.271 -4.36,4.556 -5.931,6.855l0,64.519l-14.131,0Z" style="fill:#fff;fill-rule:nonzero;"/><rect x="1254.63" y="214.074" width="67.463" height="12.281" style="fill:#fff;fill-rule:nonzero;"/><path d="M1429.26,189.512c-0,8.692 -2.72,15.716 -8.16,21.072c-5.439,5.355 -12.141,8.986 -20.104,10.893l34.32,51.396l-17.496,0l-31.629,-49.714l-15.646,0l0,49.714l-14.636,0l-0,-115.831l29.777,0c14.301,0 25.138,2.734 32.512,8.202c7.375,5.467 11.062,13.557 11.062,24.268Zm-15.646,-0c-0,-7.403 -2.145,-12.73 -6.435,-15.983c-4.29,-3.252 -10.894,-4.878 -19.81,-4.878l-16.824,-0l0,43.068l16.824,0c8.299,0 14.749,-1.696 19.347,-5.089c4.598,-3.393 6.898,-9.099 6.898,-17.118Z" style="fill:#fff;fill-rule:nonzero;"/><path d="M1470.82,184.297l0,62.752c0,5.832 1.206,10.038 3.617,12.617c2.412,2.58 6.169,3.87 11.272,3.87c4.879,-0 9.491,-1.388 13.837,-4.164c4.347,-2.776 7.725,-6.07 10.137,-9.884l-0,-65.191l14.132,-0l-0,88.576l-12.029,0l-1.178,-11.945c-3.477,4.487 -7.781,7.921 -12.912,10.305c-5.131,2.383 -10.277,3.575 -15.436,3.575c-8.58,-0 -14.987,-2.285 -19.221,-6.856c-4.234,-4.57 -6.351,-10.977 -6.351,-19.221l0,-64.434l14.132,-0Z" style="fill:#fff;fill-rule:nonzero;"/><path d="M1587.74,263.115c6.842,0 12.226,-1.261 16.151,-3.785c3.926,-2.524 5.888,-5.944 5.888,-10.262c0,-2.636 -0.49,-4.935 -1.472,-6.898c-0.981,-1.963 -2.986,-3.743 -6.014,-5.342c-3.028,-1.598 -7.683,-3.182 -13.964,-4.752c-6.112,-1.514 -11.426,-3.267 -15.94,-5.258c-4.514,-1.99 -8.019,-4.584 -10.515,-7.781c-2.495,-3.196 -3.743,-7.346 -3.743,-12.449c-0,-7.459 3.112,-13.347 9.337,-17.665c6.225,-4.318 14.328,-6.477 24.31,-6.477c7.122,-0 13.333,0.953 18.632,2.86c5.3,1.907 9.8,4.206 13.501,6.898l-6.224,9.589c-3.309,-2.299 -6.996,-4.192 -11.062,-5.678c-4.066,-1.486 -8.959,-2.229 -14.679,-2.229c-6.953,0 -11.888,1.08 -14.804,3.239c-2.917,2.159 -4.375,4.949 -4.375,8.369c0,2.636 0.715,4.809 2.145,6.52c1.43,1.71 3.856,3.238 7.277,4.584c3.42,1.346 8.131,2.832 14.132,4.458c5.776,1.57 10.823,3.421 15.141,5.552c4.318,2.131 7.669,4.921 10.052,8.37c2.383,3.449 3.575,7.921 3.575,13.417c-0,6.28 -1.795,11.37 -5.384,15.267c-3.589,3.898 -8.229,6.73 -13.921,8.496c-5.692,1.767 -11.707,2.65 -18.044,2.65c-8.019,-0 -14.846,-1.164 -20.482,-3.491c-5.636,-2.327 -10.361,-5.145 -14.174,-8.454l8.075,-9.337c3.477,2.86 7.473,5.173 11.987,6.94c4.514,1.766 9.379,2.649 14.594,2.649Z" style="fill:#fff;fill-rule:nonzero;"/><path d="M1672.7,147.285l-0,49.125c3.477,-4.599 7.753,-8.076 12.828,-10.431c5.075,-2.355 10.22,-3.533 15.436,-3.533c8.636,-0 14.945,2.299 18.926,6.898c3.982,4.598 5.973,10.991 5.973,19.179l-0,64.35l-14.132,0l-0,-64.014c-0,-5.327 -1.234,-9.211 -3.701,-11.65c-2.468,-2.44 -6.337,-3.659 -11.609,-3.659c-3.365,-0 -6.561,0.757 -9.589,2.271c-3.029,1.514 -5.748,3.393 -8.16,5.636c-2.411,2.243 -4.402,4.542 -5.972,6.897l-0,64.519l-14.132,0l0,-124.074l14.132,-1.514Z" style="fill:#fff;fill-rule:nonzero;"/></g><g><path d="M1119.62,362.08l0,11.693l-25.74,-0l0,92.446l25.74,-0l0,11.692l-66.285,0l0,-11.692l25.74,-0l0,-92.446l-25.74,-0l0,-11.693l66.285,0Z" style="fill:#fff;fill-rule:nonzero;"/><path d="M1153.86,477.911l-0,-88.576l12.029,-0l1.093,12.281c3.589,-4.542 8.075,-8.033 13.459,-10.473c5.384,-2.439 10.655,-3.659 15.814,-3.659c8.692,0 15.015,2.299 18.969,6.898c3.953,4.598 5.93,10.991 5.93,19.179l0,64.35l-14.132,0l0,-53.919c0,-6.057 -0.336,-10.936 -1.009,-14.637c-0.673,-3.701 -2.089,-6.421 -4.248,-8.16c-2.159,-1.738 -5.454,-2.607 -9.884,-2.607c-3.477,-0 -6.743,0.757 -9.8,2.271c-3.056,1.514 -5.776,3.407 -8.159,5.678c-2.384,2.271 -4.36,4.556 -5.931,6.856l0,64.518l-14.131,0Z" style="fill:#fff;fill-rule:nonzero;"/><path d="M1325.12,473.453c-3.028,2.019 -6.701,3.589 -11.019,4.711c-4.318,1.121 -8.552,1.682 -12.702,1.682c-9.533,0 -16.88,-2.495 -22.039,-7.486c-5.159,-4.992 -7.739,-11.413 -7.739,-19.264l0,-52.826l-20.356,0l-0,-10.935l20.356,-0l0,-20.104l14.132,-1.683l-0,21.787l30.619,-0l-1.682,10.935l-28.937,0l-0,52.658c-0,4.935 1.304,8.692 3.911,11.272c2.608,2.58 6.94,3.869 12.997,3.869c3.308,0 6.365,-0.392 9.169,-1.177c2.804,-0.785 5.411,-1.795 7.823,-3.028l5.467,9.589Z" style="fill:#fff;fill-rule:nonzero;"/><path d="M1366.85,438.628c0.393,10.263 3.098,17.735 8.117,22.418c5.019,4.682 10.95,7.023 17.791,7.023c4.543,0 8.637,-0.672 12.282,-2.018c3.645,-1.346 7.43,-3.337 11.356,-5.973l6.645,9.337c-4.094,3.253 -8.804,5.805 -14.132,7.655c-5.327,1.851 -10.767,2.776 -16.319,2.776c-8.636,0 -15.968,-1.935 -21.997,-5.804c-6.028,-3.87 -10.627,-9.267 -13.795,-16.193c-3.169,-6.926 -4.753,-14.959 -4.753,-24.1c0,-8.972 1.584,-16.936 4.753,-23.889c3.168,-6.954 7.655,-12.422 13.459,-16.403c5.804,-3.982 12.632,-5.973 20.483,-5.973c11.159,0 19.95,3.87 26.371,11.609c6.421,7.738 9.631,18.337 9.631,31.796c0,1.514 -0.042,2.944 -0.126,4.29c-0.084,1.346 -0.154,2.496 -0.21,3.449l-59.556,0Zm24.058,-39.535c-6.561,-0 -12.057,2.327 -16.487,6.981c-4.431,4.655 -6.926,11.861 -7.487,21.619l46.181,-0c-0.168,-9.478 -2.243,-16.614 -6.225,-21.408c-3.981,-4.795 -9.309,-7.192 -15.982,-7.192Z" style="fill:#fff;fill-rule:nonzero;"/><path d="M1457.53,477.911l0,-10.851l13.796,0l-0,-66.874l-13.796,0l0,-10.851l24.563,-0l2.608,20.945c3.42,-7.29 7.57,-12.926 12.449,-16.908c4.879,-3.981 11.328,-5.972 19.347,-5.972c2.468,0 4.669,0.182 6.604,0.547c1.934,0.364 3.911,0.827 5.93,1.388l-2.019,29.946l-11.608,-0l-0,-18.843l-0.757,0c-13.571,0 -23.301,9.702 -29.189,29.105l-0,37.517l18.001,0l-0,10.851l-45.929,0Z" style="fill:#fff;fill-rule:nonzero;"/><path d="M1621.05,458.564c0,3.589 0.589,6.197 1.767,7.823c1.177,1.626 3,2.804 5.467,3.533l-3.448,9.926c-3.814,-0.505 -7.15,-1.724 -10.01,-3.659c-2.86,-1.935 -4.935,-4.865 -6.225,-8.79c-3.197,4.093 -7.192,7.192 -11.987,9.295c-4.795,2.103 -10.052,3.154 -15.772,3.154c-8.861,0 -15.843,-2.495 -20.946,-7.486c-5.103,-4.992 -7.654,-11.609 -7.654,-19.852c-0,-9.141 3.561,-16.151 10.683,-21.03c7.122,-4.879 17.412,-7.318 30.871,-7.318l13.038,-0l0,-7.403c0,-6.393 -1.864,-10.921 -5.594,-13.585c-3.729,-2.663 -8.902,-3.995 -15.519,-3.995c-2.916,-0 -6.337,0.35 -10.263,1.051c-3.925,0.701 -8.187,1.865 -12.786,3.491l-3.701,-10.683c5.384,-2.019 10.473,-3.449 15.267,-4.29c4.795,-0.841 9.352,-1.262 13.67,-1.262c10.991,0 19.263,2.58 24.815,7.739c5.551,5.159 8.327,12.113 8.327,20.861l0,42.48Zm-36.591,10.515c4.374,-0 8.538,-1.108 12.491,-3.323c3.954,-2.215 7.249,-5.285 9.884,-9.211l0,-22.796l-12.786,0c-9.757,0 -16.641,1.683 -20.651,5.047c-4.009,3.365 -6.014,7.879 -6.014,13.543c-0,11.16 5.692,16.74 17.076,16.74Z" style="fill:#fff;fill-rule:nonzero;"/><path d="M1698.61,467.649c4.431,-0 8.566,-0.715 12.408,-2.145c3.841,-1.43 7.388,-3.295 10.641,-5.594l6.897,9.253c-3.869,3.309 -8.524,5.916 -13.963,7.823c-5.44,1.907 -10.767,2.86 -15.983,2.86c-8.804,0 -16.305,-1.893 -22.501,-5.678c-6.197,-3.785 -10.922,-9.113 -14.174,-15.982c-3.253,-6.87 -4.879,-14.931 -4.879,-24.184c-0,-8.861 1.626,-16.796 4.879,-23.806c3.252,-7.01 7.991,-12.548 14.216,-16.613c6.224,-4.066 13.767,-6.099 22.628,-6.099c11.271,0 21.141,3.421 29.609,10.263l-6.898,9.421c-7.682,-5.272 -15.309,-7.907 -22.88,-7.907c-7.626,-0 -13.907,2.874 -18.842,8.622c-4.935,5.748 -7.403,14.454 -7.403,26.119c0,11.832 2.468,20.398 7.403,25.698c4.935,5.299 11.216,7.949 18.842,7.949Z" style="fill:#fff;fill-rule:nonzero;"/><path d="M1829.84,473.453c-3.029,2.019 -6.702,3.589 -11.02,4.711c-4.318,1.121 -8.552,1.682 -12.702,1.682c-9.533,0 -16.879,-2.495 -22.039,-7.486c-5.159,-4.992 -7.738,-11.413 -7.738,-19.264l-0,-52.826l-20.357,0l-0,-10.935l20.357,-0l-0,-20.104l14.131,-1.683l0,21.787l30.619,-0l-1.682,10.935l-28.937,0l0,52.658c0,4.935 1.304,8.692 3.912,11.272c2.608,2.58 6.94,3.869 12.996,3.869c3.309,0 6.365,-0.392 9.169,-1.177c2.804,-0.785 5.412,-1.795 7.823,-3.028l5.468,9.589Z" style="fill:#fff;fill-rule:nonzero;"/><path d="M1894.02,347.865c3.14,-0 5.65,0.953 7.529,2.86c1.878,1.906 2.817,4.233 2.817,6.981c0,2.86 -0.939,5.258 -2.817,7.192c-1.879,1.935 -4.389,2.903 -7.529,2.903c-2.972,-0 -5.412,-0.968 -7.318,-2.903c-1.907,-1.934 -2.86,-4.332 -2.86,-7.192c-0,-2.748 0.953,-5.075 2.86,-6.981c1.906,-1.907 4.346,-2.86 7.318,-2.86Zm11.272,41.47l-0,77.389l24.983,-0l-0,11.187l-66.453,0l-0,-11.187l27.338,-0l-0,-66.201l-26.497,-0l-0,-11.188l40.629,-0Z" style="fill:#fff;fill-rule:nonzero;"/><path d="M2035.25,389.335l-32.217,88.576l-16.403,0l-31.965,-88.576l14.973,-0l25.656,75.706l25.32,-75.706l14.636,-0Z" style="fill:#fff;fill-rule:nonzero;"/><path d="M2073.44,438.628c0.393,10.263 3.099,17.735 8.118,22.418c5.019,4.682 10.949,7.023 17.791,7.023c4.542,0 8.636,-0.672 12.281,-2.018c3.645,-1.346 7.43,-3.337 11.356,-5.973l6.645,9.337c-4.094,3.253 -8.804,5.805 -14.132,7.655c-5.327,1.851 -10.767,2.776 -16.319,2.776c-8.636,0 -15.968,-1.935 -21.997,-5.804c-6.028,-3.87 -10.627,-9.267 -13.795,-16.193c-3.168,-6.926 -4.753,-14.959 -4.753,-24.1c0,-8.972 1.585,-16.936 4.753,-23.889c3.168,-6.954 7.655,-12.422 13.459,-16.403c5.804,-3.982 12.632,-5.973 20.483,-5.973c11.159,0 19.95,3.87 26.371,11.609c6.421,7.738 9.631,18.337 9.631,31.796c0,1.514 -0.042,2.944 -0.126,4.29c-0.084,1.346 -0.154,2.496 -0.21,3.449l-59.556,0Zm24.058,-39.535c-6.561,-0 -12.057,2.327 -16.487,6.981c-4.43,4.655 -6.926,11.861 -7.487,21.619l46.181,-0c-0.168,-9.478 -2.243,-16.614 -6.225,-21.408c-3.981,-4.795 -9.309,-7.192 -15.982,-7.192Z" style="fill:#fff;fill-rule:nonzero;"/></g></g><path d="M2133.17,323.923l-0,7.509l-1709.21,0l98.355,26.357l-7.111,26.53l-1.197,-0.321l-99.114,-26.556l184.361,106.44l-13.735,23.783l-184.352,-106.437l73.425,73.423l-19.419,19.422l-0.879,-0.873l-72.541,-72.544l106.431,184.344l-23.783,13.735l-106.443,-184.364l26.878,100.311l-26.531,7.108l-0.319,-1.194l-26.555,-99.097l0,212.863l-27.465,0l0,-212.866l-26.874,100.297l-26.53,-7.111l26.88,-100.305l-106.44,184.355l-23.786,-13.727l0.618,-1.074l105.822,-183.286l-73.431,73.428l-19.422,-19.422l73.425,-73.42l-184.349,106.434l-13.733,-23.783l1.072,-0.624l183.289,-105.819l-100.311,26.88l-7.108,-26.53l1.194,-0.319l97.161,-26.038l-211.447,0l0,-28.505l211.445,0l-98.356,-26.354l7.111,-26.527l1.197,0.318l99.108,26.556l-184.357,-106.44l13.735,-23.783l184.355,106.44l-73.431,-73.431l19.422,-19.417l0.875,0.873l72.556,72.558l-106.44,-184.36l23.783,-13.733l0.621,1.072l105.813,183.275l-26.874,-100.297l26.53,-7.111l26.877,100.311l0,-212.877l27.465,0l0,212.877l26.88,-100.311l26.525,7.111l-0.319,1.197l-26.556,99.111l106.44,-184.358l23.783,13.733l-106.437,184.355l73.426,-73.426l19.419,19.42l-0.873,0.875l-72.552,72.55l184.357,-106.437l13.73,23.786l-184.358,106.44l100.308,-26.877l7.111,26.527l-1.2,0.319l-97.161,26.035l1709.21,0l-0,6.829l-1774.02,0c-3.293,-19.715 -20.451,-34.762 -41.096,-34.762c-22.997,-0 -41.667,18.67 -41.667,41.666c0,22.997 18.67,41.667 41.667,41.667c20.519,0 37.594,-14.865 41.035,-34.404l1774.09,-0Z" style="fill:#d92f27;"/></svg>