<?xml version="1.0" encoding="UTF-8" standalone="no"?><!DOCTYPE svg PUBLIC "-//W3C//DTD SVG 1.1//EN" "http://www.w3.org/Graphics/SVG/1.1/DTD/svg11.dtd"><svg width="100%" height="100%" viewBox="0 0 2134 638" version="1.1" xmlns="http://www.w3.org/2000/svg" xmlns:xlink="http://www.w3.org/1999/xlink" xml:space="preserve" xmlns:serif="http://www.serif.com/" style="fill-rule:evenodd;clip-rule:evenodd;stroke-linejoin:round;stroke-miterlimit:2;"><g id="name"><text x="632.243px" y="272.873px" style="font-family:'FiraCode-Regular', 'Fira Code';font-size:164.031px;fill:#fff;">Photon-Rush</text><text x="1036.01px" y="477.911px" style="font-family:'FiraCode-Regular', 'Fira Code';font-size:164.031px;fill:#fff;">Interactive</text></g><path d="M2133.17,323.923l-0,7.509l-1709.21,0l98.355,26.357l-7.111,26.53l-1.197,-0.321l-99.114,-26.556l184.361,106.44l-13.735,23.783l-184.352,-106.437l73.425,73.423l-19.419,19.422l-0.879,-0.873l-72.541,-72.544l106.431,184.344l-23.783,13.735l-106.443,-184.364l26.878,100.311l-26.531,7.108l-0.319,-1.194l-26.555,-99.097l0,212.863l-27.465,0l0,-212.866l-26.874,100.297l-26.53,-7.111l26.88,-100.305l-106.44,184.355l-23.786,-13.727l0.618,-1.074l105.822,-183.286l-73.431,73.428l-19.422,-19.422l73.425,-73.42l-184.349,106.434l-13.733,-23.783l1.072,-0.624l183.289,-105.819l-100.311,26.88l-7.108,-26.53l1.194,-0.319l97.161,-26.038l-211.447,0l0,-28.505l211.445,0l-98.356,-26.354l7.111,-26.527l1.197,0.318l99.108,26.556l-184.357,-106.44l13.735,-23.783l184.355,106.44l-73.431,-73.431l19.422,-19.417l0.875,0.873l72.556,72.558l-106.44,-184.36l23.783,-13.733l0.621,1.072l105.813,183.275l-26.874,-100.297l26.53,-7.111l26.877,100.311l0,-212.877l27.465,0l0,212.877l26.88,-100.311l26.525,7.111l-0.319,1.197l-26.556,99.111l106.44,-184.358l23.783,13.733l-106.437,184.355l73.426,-73.426l19.419,19.42l-0.873,0.875l-72.552,72.55l184.357,-106.437l13.73,23.786l-184.358,106.44l100.308,-26.877l7.111,26.527l-1.2,0.319l-97.161,26.035l1709.21,0l-0,6.829l-1774.02,0c-3.293,-19.715 -20.451,-34.762 -41.096,-34.762c-22.997,-0 -41.667,18.67 -41.667,41.666c0,22.997 18.67,41.667 41.667,41.667c20.519,0 37.594,-14.865 41.035,-34.404l1774.09,-0Z" style="fill:#d92f27;"/></svg>